<svg width="600" height="600" viewBox="0 0 600 600" fill="none" xmlns="http://www.w3.org/2000/svg">
<path d="M331.847 271.018L365.253 90.6601C380.325 26.0759 317.812 7.20928 301.793 75.8509L271.305 236.149C264.687 265.989 255.592 278.994 244.037 284.193C224.205 293.119 205.952 264.136 197.422 244.129L153.316 140.688C126.347 82.1193 72.1333 109.592 93.8358 163.545L154.489 301.197L143.754 276.466L117.393 215.688C94.2167 166.815 44.4767 186.346 60.6225 234.783C60.6225 234.783 96.7367 323.637 107.324 353.794C121.128 393.114 135.249 477.306 156.795 512.977C203.681 590.603 328.532 580.551 389.012 512.977C406.015 493.981 435.987 452.585 452.714 433.347C475.953 406.618 536.76 337.223 536.76 337.223C548.951 319.238 539.495 291.44 530.087 298.284L407.672 343.204C399.267 346.029 393.787 339.372 390.253 334.071C387.677 330.208 390.989 316.962 391.975 310.983C403.639 245.869 415.302 180.756 426.967 115.642C436.925 66.0343 375.987 47.8051 363.844 98.8634" fill="#FCEA2B"/>
<path d="M331.847 271.018L365.253 90.6601C380.325 26.0759 317.812 7.20928 301.793 75.8509L271.305 236.149C264.687 265.989 255.592 278.994 244.037 284.193C224.205 293.119 205.952 264.136 197.422 244.129L153.316 140.688C126.347 82.1193 72.1333 109.592 93.8358 163.545L154.489 301.197L143.754 276.466L117.393 215.688C94.2167 166.815 44.4767 186.346 60.6225 234.783C60.6225 234.783 96.7367 323.637 107.324 353.794C121.128 393.114 135.249 477.306 156.795 512.977C203.681 590.603 328.532 580.551 389.012 512.977C406.015 493.981 435.987 452.585 452.714 433.347C475.953 406.618 536.76 337.223 536.76 337.223C548.951 319.238 539.495 291.44 530.087 298.284L407.672 343.204C399.267 346.029 393.787 339.372 390.253 334.071C387.677 330.208 390.989 316.962 391.975 310.983C403.639 245.869 415.302 180.756 426.967 115.642C436.925 66.0343 375.987 47.8051 363.844 98.8634" stroke="black" stroke-width="8" stroke-linecap="round" stroke-linejoin="round"/>
<path d="M331.847 271.018L365.253 90.6601C380.325 26.0759 317.812 7.20928 301.793 75.8509L271.305 236.149C264.687 265.989 255.592 278.994 244.037 284.193C224.205 293.119 205.952 264.136 197.422 244.129L153.316 140.688C126.347 82.1193 72.1333 109.592 93.8358 163.545L154.489 301.197L143.754 276.466L117.393 215.688C94.2167 166.815 44.4767 186.346 60.6225 234.783C60.6225 234.783 96.7367 323.637 107.324 353.794C121.128 393.114 135.249 477.306 156.795 512.977C203.681 590.603 328.532 580.551 389.012 512.977C406.015 493.981 435.987 452.585 452.714 433.347C475.953 406.618 536.76 337.223 536.76 337.223C548.951 319.238 539.495 291.44 530.087 298.284L407.672 343.204C399.267 346.029 393.787 339.372 390.253 334.071C387.677 330.208 390.989 316.962 391.975 310.983C403.639 245.869 415.302 180.756 426.967 115.642C436.925 66.0343 375.987 47.8051 363.844 98.8634" stroke="black" stroke-width="8" stroke-linecap="round" stroke-linejoin="round"/>
</svg>
